<?xml version="1.0" encoding="UTF-8" standalone="no"?>
<!-- Generator: Adobe Illustrator 19.1.0, SVG Export Plug-In . SVG Version: 6.00 Build 0)  -->

<svg
   xmlns:dc="http://purl.org/dc/elements/1.1/"
   xmlns:cc="http://creativecommons.org/ns#"
   xmlns:rdf="http://www.w3.org/1999/02/22-rdf-syntax-ns#"
   xmlns:svg="http://www.w3.org/2000/svg"
   xmlns="http://www.w3.org/2000/svg"
   xmlns:sodipodi="http://sodipodi.sourceforge.net/DTD/sodipodi-0.dtd"
   xmlns:inkscape="http://www.inkscape.org/namespaces/inkscape"
   version="1.1"
   id="Layer_1"
   x="0px"
   y="0px"
   viewBox="0 0 64 32"
   xml:space="preserve"
   sodipodi:docname="blimp.svg"
   width="64"
   height="32"
   inkscape:version="0.92.2 2405546, 2018-03-11"><metadata
   id="metadata31"><rdf:RDF><cc:Work
       rdf:about=""><dc:format>image/svg+xml</dc:format><dc:type
         rdf:resource="http://purl.org/dc/dcmitype/StillImage" /><dc:title></dc:title></cc:Work></rdf:RDF></metadata><defs
   id="defs29" /><sodipodi:namedview
   pagecolor="#ffffff"
   bordercolor="#666666"
   borderopacity="1"
   objecttolerance="10"
   gridtolerance="10"
   guidetolerance="10"
   inkscape:pageopacity="0"
   inkscape:pageshadow="2"
   inkscape:window-width="1920"
   inkscape:window-height="1111"
   id="namedview27"
   showgrid="false"
   inkscape:snap-grids="true"
   inkscape:zoom="10.429825"
   inkscape:cx="11.265654"
   inkscape:cy="21.600534"
   inkscape:window-x="0"
   inkscape:window-y="32"
   inkscape:window-maximized="1"
   inkscape:current-layer="Layer_1" />
<style
   type="text/css"
   id="style2">
	.st0{display:none;fill:#2B3544;}
	.st1{fill:#77B3D4;}
	.st2{opacity:0.2;}
	.st3{fill:#231F20;}
	.st4{fill:#4F5D73;}
	.st5{fill:#C75C5C;}
	.st6{fill:#FFFFFF;}
	.st7{opacity:0.2;fill:#231F20;}
</style>
<rect
   x="-475"
   y="-1545"
   class="st0"
   width="608"
   height="1984"
   id="rect4"
   style="display:none;fill:#2b3544" />

<g
   class="st2"
   id="g12"
   style="opacity:0.2"
   transform="matrix(1.2396001,0,0,1,-5.939051,-16.371742)">
	<path
   class="st3"
   d="M 39,44 H 29 c -1.1,0 -1,0.9 -1,2 0,1.1 1.9,2 3,2 h 6 c 1.1,0 3,-0.9 3,-2 0,-1.1 0.1,-2 -1,-2 z"
   id="path8"
   inkscape:connector-curvature="0"
   style="fill:#231f20" />
	<path
   class="st3"
   d="M 34,22 C 28.9,22 24.2,22.8 20.4,24.1 18,22.8 15.1,22 12.8,22 H 7 c -1.1,0.4 3.4,5.5 5.8,7.3 -0.5,0.9 -0.8,1.8 -0.8,2.7 0,0.8 0.2,1.6 0.6,2.4 -2.1,1 -3.6,3.7 -5.5,5.6 v 0.2 c -0.7,0.9 -0.2,1.6 1,1.6 l 5,0.1 c 0.6,0 3.4,-1.3 6,-2.6 C 23.1,41 28.3,42 34,42 46.2,42 56,37.5 56,32 56,26.5 46.2,22 34,22 Z"
   id="path10"
   inkscape:connector-curvature="0"
   style="fill:#231f20" />
</g>
<path
   class="st4"
   d="m 43.355231,29.066441 c 0,1.1 -2.324895,2 -3.670887,2 h -7.341775 c -1.345992,0 -3.670888,-0.9 -3.670888,-2 v 0 c 0,-1.1 -0.122363,-2 1.223629,-2 h 12.236292 c 1.345992,0 1.223629,0.9 1.223629,2 z"
   id="path14"
   inkscape:connector-curvature="0"
   style="fill:#4f5d73;stroke-width:1.10617769" />
<path
   class="st5"
   d="m 9.6854501,11.628258 c -1.2,0 -8.4,-7.5999996 -7,-7.9999996 h 5.8 c 3.1999999,0 7.7999999,1.6 10.1999999,4 l -3,0.2 c 0.7,0.9 0.2,1.6 -1,1.6 z"
   id="path16"
   inkscape:connector-curvature="0"
   style="fill:#c75c5c" />
<path
   class="st5"
   d="m 9.0898031,24.29941 c 1.2934169,0 13.1497349,-5.6 11.6407489,-6 l -10.347332,-2 c -3.4491111,0 -5.1736665,3.6 -7.7604996,6 v 0.2 c -0.754493,0.9 -0.2155694,1.6 1.0778471,1.6 z"
   id="path18"
   inkscape:connector-curvature="0"
   style="fill:#c75c5c;stroke-width:1.03819418" />
<ellipse
   class="st6"
   cx="36.207352"
   cy="13.628259"
   rx="27.271202"
   ry="10"
   id="ellipse20"
   style="fill:#ffffff;stroke-width:1.11337328" />
<path
   class="st7"
   d="m 3.0854501,15.528258 c -0.8,0 -1.4,0.1 -1.4,-0.7 v 0 c 0,-0.8 0.6,-0.7 1.4,-0.7 l 11.5999999,-1.5 c 0.8,0 2.9,1.4 2.9,2.2 v 0 c 0,0.8 -2.1,2.2 -2.9,2.2 z"
   id="path22"
   inkscape:connector-curvature="0"
   style="opacity:0.2;fill:#231f20" />
<path
   class="st5"
   d="m 1.6854501,14.828258 c -0.8,0 -1,-0.4 -1,-1.2 v 0 c 0,-0.8 0.2,-0.8 1,-0.8 l 11.9999999,-1 c 0.8,0 3,1.2 3,2 h -0.1 c 0,0.8 -2.1,2 -2.9,2 z"
   id="path24"
   inkscape:connector-curvature="0"
   style="fill:#c75c5c" />
</svg>