<!DOCTYPE svg PUBLIC "-//W3C//DTD SVG 20010904//EN" "http://www.w3.org/TR/2001/REC-SVG-20010904/DTD/svg10.dtd">
<svg version="1.0" xmlns="http://www.w3.org/2000/svg" width="1316px" height="329px" viewBox="0 0 13160 3290" preserveAspectRatio="xMidYMid meet">
<g id="layer101" fill="#ffab00" stroke="none">
 <path d="M1605 2535 c-9 -36 -18 -71 -19 -79 0 -8 46 -48 104 -89 402 -287 634 -581 696 -884 20 -93 15 -267 -10 -358 -23 -85 -88 -215 -151 -306 l-55 -78 103 -85 c84 -69 103 -81 109 -68 4 10 19 66 33 126 14 60 32 133 41 162 l15 54 49 0 c71 0 152 34 205 86 110 106 174 363 146 578 -48 359 -288 680 -647 863 -179 92 -366 143 -522 143 l-79 0 -18 -65z"/>
 <path d="M739 2546 c-57 -15 -103 -47 -140 -99 -51 -71 -60 -120 -69 -377 -4 -129 -12 -249 -18 -267 -27 -84 -75 -128 -154 -141 -42 -7 -43 -8 -46 -50 -3 -39 -1 -42 22 -42 35 0 117 -29 140 -49 45 -38 50 -73 57 -356 4 -184 11 -283 20 -310 8 -24 37 -64 74 -100 61 -62 90 -76 183 -91 l42 -7 0 42 c0 35 -3 41 -25 46 -14 3 -35 7 -47 10 -52 11 -86 43 -108 102 -19 51 -22 81 -25 279 -4 277 -9 296 -106 399 -38 40 -69 76 -69 81 0 5 16 18 36 29 46 25 91 82 116 148 17 45 20 82 23 280 4 260 15 318 65 361 30 24 86 46 123 46 13 0 17 9 17 40 0 39 -1 40 -32 39 -18 0 -54 -6 -79 -13z"/>
 <path d="M12150 2503 c0 -42 1 -43 32 -43 57 0 114 -36 140 -88 21 -44 23 -64 29 -292 8 -302 10 -308 128 -433 30 -31 52 -58 50 -60 -2 -2 -23 -15 -46 -30 -23 -14 -53 -42 -68 -61 -49 -64 -57 -111 -64 -381 -6 -242 -7 -251 -31 -295 -27 -49 -92 -90 -142 -90 -26 0 -28 -3 -28 -40 0 -39 1 -40 33 -40 118 0 220 78 257 196 19 59 23 102 29 305 l7 237 29 58 c33 64 68 90 137 102 42 7 43 8 46 50 3 40 2 42 -25 42 -37 1 -102 31 -130 61 -47 52 -56 98 -63 359 -9 289 -13 309 -88 392 -46 51 -96 76 -172 86 l-60 9 0 -44z"/>
 <path d="M1430 2288 c-41 -5 -111 -21 -155 -36 l-80 -27 -3 -82 -3 -82 43 -11 c448 -115 803 -319 985 -565 37 -50 43 -54 38 -30 -47 210 -198 435 -421 627 -144 123 -276 218 -304 217 -14 -1 -59 -6 -100 -11z"/>
 <path d="M4057 2066 c-85 -23 -127 -80 -127 -172 0 -70 25 -115 83 -148 62 -35 100 -45 233 -59 l119 -13 -1 -74 c0 -90 -18 -130 -68 -154 -47 -22 -140 -20 -221 5 -37 11 -68 19 -70 17 -2 -2 -5 -12 -7 -23 -2 -17 8 -24 62 -43 54 -19 82 -22 162 -19 104 3 129 13 171 68 31 43 37 94 37 357 l0 252 -24 0 c-20 0 -25 -6 -30 -45 -4 -25 -10 -45 -13 -45 -3 0 -23 16 -45 36 -22 20 -54 42 -72 49 -50 21 -136 26 -189 11z m171 -62 c87 -36 132 -109 132 -214 0 -68 -1 -70 -22 -66 -13 3 -54 7 -93 11 -95 8 -177 32 -208 61 -61 56 -58 166 6 204 40 25 132 27 185 4z"/>
 <path d="M5457 2066 c-98 -27 -153 -121 -127 -217 26 -95 115 -141 312 -161 l123 -13 3 -40 c6 -65 -15 -138 -49 -171 -42 -40 -137 -46 -240 -14 -58 17 -74 19 -80 8 -15 -23 -4 -32 62 -55 90 -31 208 -31 269 0 90 46 100 88 100 418 l0 239 -24 0 c-22 0 -26 -6 -32 -45 -3 -25 -10 -47 -14 -50 -4 -2 -16 8 -27 23 -50 67 -181 104 -276 78z m171 -62 c86 -36 131 -110 132 -217 0 -65 -1 -67 -22 -63 -13 3 -54 7 -93 11 -155 13 -237 56 -251 131 -10 54 11 111 49 134 40 25 132 27 185 4z"/>
 <path d="M7197 2070 c-65 -17 -116 -49 -144 -92 l-28 -41 -3 -274 -3 -273 30 0 30 0 3 268 c3 258 4 268 25 298 31 43 88 64 176 64 99 -1 151 -25 177 -82 18 -39 20 -67 20 -295 l0 -253 31 0 30 0 -3 274 -3 274 -30 43 c-42 59 -101 88 -195 94 -41 2 -92 0 -113 -5z"/>
 <path d="M3182 1603 l3 -458 180 1 c216 0 274 13 334 73 37 37 61 98 61 153 0 73 -49 151 -115 182 -40 19 -39 31 2 39 45 10 90 43 120 88 22 33 28 56 31 111 7 116 -38 195 -138 242 -41 19 -66 21 -263 24 l-217 4 2 -459z m443 376 c59 -30 91 -74 101 -134 15 -102 -26 -178 -114 -212 -38 -15 -76 -18 -202 -18 l-155 0 -3 185 c-1 101 0 191 3 198 4 11 35 13 163 11 146 -4 161 -6 207 -30z m-25 -451 c58 -29 80 -72 80 -154 0 -74 -26 -119 -85 -149 -35 -17 -60 -20 -190 -20 l-150 0 -3 173 -2 172 153 0 c139 0 157 -2 197 -22z"/>
 <path d="M4630 1725 l0 -335 30 0 c29 0 30 2 30 44 0 55 10 63 41 30 50 -54 106 -77 193 -82 70 -3 87 0 126 20 54 28 85 71 99 139 6 28 11 155 11 284 l0 235 -29 0 -29 0 -4 -257 c-3 -234 -5 -262 -23 -298 -26 -52 -72 -75 -151 -75 -86 0 -157 38 -199 105 l-30 48 -3 239 -4 238 -29 0 -29 0 0 -335z"/>
 <path d="M6030 1724 l0 -335 28 3 c23 3 27 8 30 38 5 63 9 65 52 27 59 -54 97 -70 181 -75 135 -8 205 45 228 172 6 33 11 160 11 283 l0 223 -35 0 -35 0 0 -262 c0 -230 -2 -267 -18 -298 -23 -47 -72 -70 -148 -70 -109 0 -197 62 -224 159 -5 20 -10 134 -10 254 l0 217 -30 0 -30 0 0 -336z"/>
 <path d="M6760 1725 l0 -335 30 0 c17 0 30 3 31 8 3 26 4 639 1 650 -2 6 -17 12 -33 12 l-29 0 0 -335z"/>
 <path d="M7730 1725 l0 -335 24 0 c21 0 25 6 31 50 4 28 9 50 12 50 2 0 15 -13 29 -29 90 -107 302 -109 365 -3 13 20 24 39 25 41 2 2 25 -19 51 -46 55 -55 100 -73 189 -73 104 1 168 45 193 135 7 24 11 139 11 293 l0 252 -29 0 -29 0 -4 -252 c-3 -242 -4 -255 -27 -301 -27 -56 -62 -77 -126 -77 -88 0 -152 42 -191 125 -23 48 -24 59 -24 278 l0 227 -30 0 -30 0 0 -225 c0 -258 -8 -312 -54 -363 -28 -30 -40 -36 -88 -40 -68 -5 -118 10 -165 51 -68 59 -73 83 -73 345 l0 232 -30 0 -30 0 0 -335z"/>
 <path d="M9723 2039 c-46 -13 -100 -71 -114 -121 -15 -56 -5 -130 22 -175 31 -51 119 -89 234 -103 166 -20 155 -16 155 -60 0 -56 -15 -87 -52 -110 -42 -25 -94 -25 -189 0 -41 11 -77 20 -81 20 -8 0 -42 -89 -36 -95 3 -3 42 -15 87 -26 116 -29 246 -24 316 11 38 20 55 37 75 75 25 49 25 53 28 317 l3 268 -55 0 -55 0 -12 -40 c-14 -45 -27 -50 -55 -19 -34 39 -113 69 -179 68 -33 0 -75 -5 -92 -10z m218 -115 c15 -7 39 -28 53 -45 24 -28 27 -38 24 -98 l-3 -66 -45 3 c-141 9 -207 45 -216 117 -3 23 1 51 8 65 25 47 112 58 179 24z"/>
 <path d="M10605 2026 c-27 -13 -59 -33 -69 -45 -28 -31 -43 -26 -50 19 l-6 40 -65 0 -65 0 0 -465 0 -465 23 0 c12 0 46 -3 75 -6 l52 -7 0 177 c0 97 2 176 4 176 2 0 21 -16 42 -35 56 -51 110 -69 195 -63 85 6 136 37 186 112 40 59 52 100 60 197 11 141 -36 273 -119 339 -71 56 -178 66 -263 26z m131 -107 c35 -16 49 -32 71 -77 24 -49 28 -68 28 -147 0 -76 -4 -98 -25 -139 -35 -70 -68 -91 -140 -91 -43 0 -66 5 -87 21 -64 46 -94 165 -73 285 15 85 40 125 93 149 54 25 81 25 133 -1z"/>
 <path d="M11235 2044 c-11 -3 -42 -12 -69 -21 l-48 -15 5 -51 c4 -27 8 -51 10 -53 2 -2 30 5 63 16 156 54 274 27 274 -63 0 -41 -35 -68 -144 -111 -158 -62 -206 -112 -206 -212 0 -68 36 -125 97 -156 42 -20 62 -23 158 -23 100 1 170 12 203 33 20 13 -15 105 -37 97 -132 -51 -261 -42 -277 19 -14 57 17 81 172 140 85 32 148 83 164 132 18 55 8 136 -23 182 -41 62 -100 86 -222 89 -55 1 -109 -1 -120 -3z"/>
 <path d="M8980 1585 l0 -455 75 0 75 0 2 393 3 392 193 3 c152 2 192 5 192 16 0 7 -3 34 -6 60 l-7 46 -263 0 -264 0 0 -455z"/>
 <path d="M1115 1860 c-55 -27 -112 -59 -127 -72 l-26 -23 22 -75 23 -75 89 -2 c445 -12 805 -108 1022 -273 28 -22 52 -37 52 -34 0 17 -83 129 -139 187 -115 120 -256 212 -455 297 -102 44 -324 120 -350 120 -6 0 -56 -22 -111 -50z"/>
 <path d="M6760 1185 c0 -43 1 -45 30 -45 29 0 30 2 30 45 0 43 -1 45 -30 45 -29 0 -30 -2 -30 -45z"/>
 </g>

</svg>