<svg version="1.1" id="Layer_1" xmlns="http://www.w3.org/2000/svg" xmlns:xlink="http://www.w3.org/1999/xlink" x="0px" y="0px"
	 width="100%" viewBox="0 0 192 192" enable-background="new 0 0 192 192" xml:space="preserve">
<path fill="#000000" opacity="1.000000" stroke="none" 
	d="
M12.500906,105.446106 
	C11.585084,78.889717 19.831264,56.129551 38.453773,37.719326 
	C76.949272,-0.337359 138.792664,3.336190 171.819000,46.078938 
	C191.665253,71.763969 196.174377,100.920860 184.937714,131.430130 
	C172.789688,164.413879 148.190186,183.549088 113.751961,189.031311 
	C67.935989,196.324783 22.666256,163.815826 13.996839,118.252937 
	C13.223347,114.187798 13.021826,110.013817 12.500906,105.446106 
M69.953514,35.461380 
	C41.541931,49.622986 25.564381,78.115578 29.536331,110.383965 
	C34.851273,153.562927 78.841850,182.421890 120.922447,170.528183 
	C157.744186,160.120834 180.812683,123.631363 172.152466,85.073303 
	C161.857956,39.238857 113.386948,15.804799 69.953514,35.461380 
M95.080421,23.476194 
	C99.925880,23.444376 104.840988,24.311005 110.010971,22.778416 
	C102.912376,16.438272 98.363708,16.647165 92.404358,23.228624 
	C93.127342,23.289042 93.776649,23.343302 95.080421,23.476194 
M143.189148,28.869551 
	C139.681656,27.771212 136.177200,28.482740 131.266754,28.394022 
	C137.512482,32.325531 142.515594,35.471363 148.503143,38.004398 
	C147.076477,34.579536 145.778763,31.784060 143.189148,28.869551 
M58.838169,36.139160 
	C62.731888,33.812149 66.625603,31.485140 70.955544,28.897425 
	C59.818871,27.263033 58.000301,28.348099 54.664825,38.143860 
	C55.869255,37.581066 57.058270,37.025478 58.838169,36.139160 
M60.225697,173.083328 
	C63.732914,173.300003 67.250618,173.734039 71.319321,172.761414 
	C65.605804,169.610443 60.946987,165.867752 54.650909,163.552322 
	C56.042461,167.276581 57.512249,170.165161 60.225697,173.083328 
M95.562080,181.144211 
	C102.141212,184.587891 103.889404,184.308563 110.512489,178.607697 
	C104.397545,178.607697 98.500824,178.607697 91.341370,178.607697 
	C93.307846,179.810837 94.136665,180.317932 95.562080,181.144211 
M37.140469,144.067047 
	C34.754803,139.962952 32.369133,135.858841 29.673256,131.221085 
	C28.104050,142.578781 28.764040,143.673538 39.265850,147.780792 
	C38.605495,146.611786 38.047737,145.624420 37.140469,144.067047 
M137.396194,173.132248 
	C143.693588,173.706314 145.783234,171.794708 147.527771,163.770737 
	C142.031036,166.159485 137.150879,169.435715 131.253296,173.119751 
	C133.759903,173.119751 135.202606,173.119751 137.396194,173.132248 
M37.792892,56.061810 
	C37.995930,55.326000 38.977436,54.825195 38.471809,53.861149 
	C28.036238,59.334278 27.716427,59.898407 29.926847,70.028564 
	C32.660816,65.215378 35.099773,60.921562 37.792892,56.061810 
M170.061768,56.626659 
	C168.197021,55.703999 166.332260,54.781342 164.038437,53.646378 
	C166.744278,59.497910 169.597031,64.579681 173.433640,69.119621 
	C172.776535,64.978416 176.137543,59.984329 170.061768,56.626659 
M23.937685,107.922165 
	C23.937685,102.366760 23.937685,96.811348 23.937685,89.823441 
	C21.876169,93.529335 20.366442,95.899963 19.198254,98.428391 
	C17.665531,101.745789 20.459373,107.556885 23.937685,107.922165 
M173.325165,142.360336 
	C173.929260,139.071243 174.093872,135.804993 173.058304,131.819305 
	C169.868530,137.106369 166.700058,141.478592 164.479691,147.249664 
	C168.008163,146.210037 170.492401,144.713409 173.325165,142.360336 
M77.279877,178.176910 
	C74.856644,178.176910 72.433403,178.176910 68.564461,178.176910 
	C76.302353,182.142578 83.298615,183.120422 90.334091,184.076218 
	C86.330025,181.950058 83.170959,178.142288 77.279877,178.176910 
M118.747993,180.057388 
	C116.699615,181.346329 114.651237,182.635269 111.576576,184.569992 
	C119.711914,182.856644 126.819992,182.380386 133.940643,178.177628 
	C128.388916,178.532074 123.716660,177.074142 118.747993,180.057388 
M20.819809,115.804565 
	C19.951466,114.301514 19.083120,112.798462 18.214777,111.295410 
	C19.082397,118.472832 19.766796,125.569595 23.784706,132.678406 
	C24.091484,126.411629 24.811554,121.056892 20.819809,115.804565 
M129.840179,21.345055 
	C124.628166,19.233269 119.157036,18.277369 112.857368,17.290628 
	C119.085052,22.526508 125.137741,25.220007 132.747604,22.735403 
	C131.886414,22.320471 131.163086,21.971970 129.840179,21.345055 
M183.980743,99.253548 
	C182.629288,96.964172 182.053391,94.149132 179.307037,91.845245 
	C178.830948,98.162895 178.686478,103.658600 179.405350,110.063225 
	C181.907028,106.444695 183.986740,103.625359 183.980743,99.253548 
M73.079704,21.256638 
	C72.106567,21.723282 71.133430,22.189926 69.943779,22.760393 
	C77.742050,25.094296 83.764954,22.456949 89.018913,17.106951 
	C83.921181,18.392090 78.823448,19.677229 73.079704,21.256638 
M36.785759,152.634689 
	C36.268147,152.449387 35.932354,151.510437 34.981949,152.418320 
	C39.123554,158.066147 43.885052,163.019455 50.150326,167.309509 
	C47.622120,160.264374 43.550179,155.571838 36.785759,152.634689 
M165.535660,48.196453 
	C165.955475,48.457321 166.354584,48.766857 166.804047,48.957989 
	C167.020325,49.049957 167.331589,48.918579 167.637909,48.884048 
	C163.705948,43.376141 159.164124,38.569901 153.278473,34.595371 
	C155.560165,40.840004 158.508606,45.956219 165.535660,48.196453 
M41.679649,41.184944 
	C40.543671,42.399677 39.343788,43.561878 38.289799,44.844013 
	C37.249985,46.108913 36.357811,47.495174 35.317039,48.944962 
	C43.177147,46.733807 47.325264,41.328568 50.119617,33.842773 
	C47.194256,36.363564 44.688107,38.523121 41.679649,41.184944 
M161.946274,159.466797 
	C163.848099,157.536301 165.660477,155.543655 167.076263,152.826828 
	C159.541641,155.040649 155.524399,160.067871 153.010498,166.969162 
	C156.319611,164.951019 158.981522,162.572021 161.946274,159.466797 
M23.881458,78.888542 
	C23.929796,77.402901 24.046326,75.915466 24.007275,74.432121 
	C23.968307,72.952065 23.773460,71.476112 23.553516,68.906898 
	C20.321865,75.807388 18.833139,81.830498 19.201427,88.391998 
	C20.716482,85.497124 22.231535,82.602249 23.881458,78.888542 
M182.657867,77.821739 
	C181.599991,74.730583 180.542130,71.639435 179.210144,67.747276 
	C178.511459,75.818115 178.635986,82.767319 184.931702,88.873741 
	C184.112274,84.996918 183.439331,81.813049 182.657867,77.821739 
M184.063126,116.206268 
	C184.240280,115.080269 184.417435,113.954269 184.669586,112.351494 
	C179.859589,118.046684 177.709610,123.939941 179.659363,131.462341 
	C182.221237,126.639221 183.162506,121.814659 184.063126,116.206268 
z"/>
<path fill="#000000" opacity="1.000000" stroke="none" 
	d="
M45.105297,114.044525 
	C50.464775,103.572731 49.572735,93.797577 43.329727,84.455238 
	C42.054962,82.547623 41.904156,80.767281 42.810211,78.845505 
	C44.652615,74.937698 46.468491,71.009262 48.515614,67.207970 
	C51.599297,61.481888 55.589592,58.323341 63.034142,58.354774 
	C72.909538,58.396473 80.893913,53.105831 85.331947,43.961441 
	C87.245399,40.018845 89.777275,38.509632 93.870995,38.627460 
	C95.516830,38.674831 97.174446,38.136940 98.827744,38.130413 
	C107.238121,38.097191 115.187965,37.591900 120.101868,47.432854 
	C124.233688,55.707546 132.992416,58.749195 142.141983,58.549919 
	C146.511795,58.454739 149.365524,59.782055 151.723846,63.265091 
	C153.875092,66.442276 155.880234,69.674080 157.664093,73.074005 
	C160.324066,78.143753 161.188217,82.411797 157.652847,88.141014 
	C152.207977,96.964722 152.922577,106.712730 158.850479,115.468445 
	C160.909393,118.509560 161.206268,121.044624 159.520309,124.158981 
	C157.701462,127.518753 156.241241,131.076477 154.358627,134.397064 
	C151.109604,140.127747 147.186310,143.751160 139.446457,143.417480 
	C129.324936,142.981140 121.824280,148.779144 117.336983,157.829865 
	C115.813011,160.903656 113.830139,162.297318 110.577080,162.776276 
	C104.926170,163.608292 99.295662,163.440979 93.652054,162.991135 
	C89.785851,162.682953 87.255554,161.053482 85.233727,157.254257 
	C80.025993,147.468399 71.485382,142.525269 60.258938,143.143921 
	C56.672405,143.341553 54.379303,142.211121 52.249741,139.419495 
	C48.992920,135.150146 46.402721,130.565399 44.053078,125.760788 
	C42.046879,121.658463 41.497128,117.934204 45.105297,114.044525 
M102.282944,150.624634 
	C104.007027,150.064377 105.825470,149.697052 107.437813,148.908371 
	C112.639473,146.363892 115.398605,140.928436 114.742615,134.894531 
	C114.192108,129.830978 109.499481,124.760231 104.228706,123.533485 
	C99.067589,122.332245 93.181076,124.901474 90.111740,129.694977 
	C84.449738,138.537582 89.880669,148.523956 102.282944,150.624634 
M59.772499,74.330788 
	C58.968029,75.953621 57.946178,77.506790 57.399555,79.212265 
	C55.711235,84.479889 57.871754,90.145996 62.656361,93.502365 
	C67.276985,96.743706 73.385880,96.610374 77.975784,93.168015 
	C82.629646,89.677689 84.467239,83.985260 82.653702,78.676994 
	C79.221741,68.631607 69.224113,66.445389 59.772499,74.330788 
M124.736092,72.167030 
	C118.087761,78.468849 117.692345,86.565849 123.755554,92.245659 
	C129.467896,97.596786 138.125580,96.914246 143.194611,90.713165 
	C146.824448,86.272705 146.854614,79.041527 143.262299,74.483627 
	C139.013428,69.092690 132.469940,68.085121 124.736092,72.167030 
M82.454338,114.159065 
	C79.649429,108.389046 73.933609,104.738228 68.757927,105.410873 
	C61.828857,106.311409 55.696602,113.872162 56.779873,120.179192 
	C58.163292,128.233749 65.347229,133.265427 73.113373,131.619278 
	C80.687592,130.013824 84.874146,122.688232 82.454338,114.159065 
M140.327240,108.072571 
	C132.827576,103.980431 125.068390,105.579903 121.346329,111.985275 
	C117.660019,118.329132 119.750153,126.450043 126.026855,130.170761 
	C131.644806,133.500977 139.435211,131.872757 143.476212,126.719612 
	C146.685944,122.626541 147.624939,113.349319 140.327240,108.072571 
M111.975838,72.364212 
	C118.935547,63.794395 111.879257,52.218784 102.744370,51.364494 
	C96.565186,50.786617 90.818367,54.620567 88.924644,60.529316 
	C87.059608,66.348534 89.307610,72.520203 94.452415,75.705292 
	C100.163292,79.240807 106.030296,78.289597 111.975838,72.364212 
z"/>
</svg>