<svg id="Layer_1" data-name="Layer 1" xmlns="http://www.w3.org/2000/svg" xmlns:xlink="http://www.w3.org/1999/xlink" viewBox="0 0 1921 1080"><defs><style>.cls-1{fill:none;}.cls-2{clip-path:url(#clip-path);}.cls-3{fill:url(#linear-gradient);}.cls-4{fill:url(#linear-gradient-2);}.cls-5{fill:#b0bec5;}.cls-6{fill:#4caf50;}.cls-7{fill:#6d4c41;}.cls-8{fill:#689f38;}.cls-9{fill:#9ccc65;}.cls-10{fill:#1b5e20;}.cls-11{fill:#e0f2f1;}.cls-12{fill:#90a4ae;}.cls-13{fill:#cfd8dc;}.cls-14{fill:#424242;}.cls-15{fill:#fbc02d;}.cls-16{fill:#fdd835;}.cls-17{fill:#e0f7fa;}</style><clipPath id="clip-path"><rect class="cls-1" width="1921" height="1080"/></clipPath><linearGradient id="linear-gradient" x1="-419.5" y1="539.5" x2="660.5" y2="539.5" gradientTransform="translate(421 660) rotate(-90)" gradientUnits="userSpaceOnUse"><stop offset="0" stop-color="#fff"/><stop offset="0" stop-color="#f8f8f8"/><stop offset="0.39" stop-color="#23bcff"/><stop offset="1" stop-color="#8fc7f5"/></linearGradient><linearGradient id="linear-gradient-2" x1="1920.5" y1="539.5" x2="0.5" y2="539.5" gradientUnits="userSpaceOnUse"><stop offset="0" stop-color="#fff"/><stop offset="0" stop-color="#f8f8f8"/><stop offset="0" stop-color="#90caf9"/><stop offset="0.26" stop-color="#8bc9f9"/><stop offset="1" stop-color="#23bcff"/></linearGradient></defs><title>about</title><g class="cls-2"><rect class="cls-3" x="0.5" y="-0.5" width="1920" height="1080"/><path class="cls-4" d="M1919.5.5v1078H1.5V.5h1918m1-1H.5v1080h1920V-.5Z"/><rect class="cls-5" x="1228.5" y="567.5" width="86" height="345"/><path class="cls-6" d="M1936.5,1189,537,1189.14c38.08-51.73,217-312.39,659-351.14,287.16-25.18,551.64,66.11,740.5,162.09"/><polygon class="cls-7" points="198 849.5 208.97 780.57 208.97 740.88 222.02 740.88 222.02 772.22 225.15 841.14 198 849.5"/><polygon class="cls-7" points="517 823.5 527.97 754.57 527.97 714.88 541.02 714.88 541.02 746.22 544.15 815.14 517 823.5"/><polygon class="cls-7" points="644 832.5 654.97 763.57 654.97 723.88 668.02 723.88 668.02 755.22 671.15 824.14 644 832.5"/><polygon class="cls-7" points="378.07 835.5 369.46 781.43 369.46 750.29 359.22 750.29 359.22 774.87 356.76 828.95 378.07 835.5"/><path class="cls-8" d="M-418,1189.14C-379.94,1137.41,47,810.75,489,772c544.22-47.71,700.91,384.85,722,413Z"/><path class="cls-9" d="M17,1194c38.08-51.73,341-217.21,783-256,544.22-47.71,824.91,223.67,846,251.82Z"/><path class="cls-6" d="M.5,1079.5,1,797.77Z"/><polygon class="cls-10" points="174.5 774.83 261.18 774.83 211.58 695.45 174.5 774.83"/><polygon class="cls-10" points="182.85 737.75 253.35 737.75 215.23 659.94 182.85 737.75"/><polygon class="cls-10" points="187.03 710.07 248.13 710.07 213.14 649.5 187.03 710.07"/><polygon class="cls-10" points="396.5 776.92 328.5 776.92 367.42 714.66 396.5 776.92"/><polygon class="cls-10" points="389.95 747.84 334.64 747.84 364.55 686.8 389.95 747.84"/><polygon class="cls-10" points="386.67 726.13 338.74 726.13 366.19 678.61 386.67 726.13"/><polygon class="cls-10" points="620.5 757.83 707.18 757.83 657.58 678.45 620.5 757.83"/><polygon class="cls-10" points="628.86 720.75 699.35 720.75 661.23 642.94 628.86 720.75"/><polygon class="cls-10" points="633.03 693.07 694.13 693.07 659.14 632.5 633.03 693.07"/><polygon class="cls-10" points="493.5 748.83 580.18 748.83 530.58 669.45 493.5 748.83"/><polygon class="cls-10" points="501.86 711.75 572.35 711.75 534.23 633.94 501.86 711.75"/><polygon class="cls-10" points="506.03 684.07 567.13 684.07 532.14 623.5 506.03 684.07"/><polygon class="cls-7" points="104 932.5 114.97 863.57 114.97 823.88 128.02 823.88 128.02 855.22 131.15 924.14 104 932.5"/><polygon class="cls-10" points="80.5 857.83 167.18 857.83 117.58 778.45 80.5 857.83"/><polygon class="cls-10" points="88.86 820.75 159.35 820.75 121.23 742.94 88.86 820.75"/><polygon class="cls-10" points="93.03 793.07 154.13 793.07 119.14 732.5 93.03 793.07"/><polygon class="cls-7" points="430.4 913.5 444.82 822.86 444.82 770.67 461.99 770.67 461.99 811.87 466.11 902.51 430.4 913.5"/><polygon class="cls-10" points="399.5 815.3 513.49 815.3 448.25 710.93 399.5 815.3"/><polygon class="cls-10" points="410.49 766.55 503.19 766.55 453.06 664.23 410.49 766.55"/><polygon class="cls-10" points="415.98 730.15 496.32 730.15 450.31 650.5 415.98 730.15"/><polygon class="cls-7" points="804.08 865.5 794.09 802.68 794.09 766.51 782.19 766.51 782.19 795.07 779.34 857.89 804.08 865.5"/><polygon class="cls-10" points="825.5 797.45 746.5 797.45 791.71 725.11 825.5 797.45"/><polygon class="cls-10" points="817.89 763.66 753.64 763.66 788.38 692.75 817.89 763.66"/><polygon class="cls-11" points="1275.39 352.5 1238.5 473.5 1304.5 473.5 1275.39 352.5"/><polygon class="cls-10" points="814.08 738.43 758.4 738.43 790.28 683.23 814.08 738.43"/><polygon class="cls-5" points="1240.2 422.5 1228.5 473.5 1249.44 473.5 1240.2 422.5"/><polygon class="cls-5" points="1306.04 422.5 1294.34 473.5 1315.28 473.5 1306.04 422.5"/><rect class="cls-12" x="1225" y="561" width="94" height="7"/><rect class="cls-13" x="1228.5" y="473.5" width="87" height="87"/><rect class="cls-14" x="1238.5" y="487.5" width="11" height="60"/><rect class="cls-14" x="1266.5" y="487.5" width="11" height="60"/><rect class="cls-14" x="1294.5" y="486.5" width="11" height="60"/><rect class="cls-15" x="816.5" y="600.5" width="288" height="447"/><rect class="cls-15" x="1100.5" y="735.5" width="166" height="312"/><rect class="cls-12" x="804.5" y="586.4" width="328" height="16.1"/><polygon class="cls-11" points="968.5 473.5 804.5 586.5 1132.5 586.5 968.5 473.5"/><rect class="cls-16" x="1061.5" y="602.5" width="43" height="445"/><rect class="cls-16" x="1222.5" y="736.5" width="43" height="310"/><rect class="cls-12" x="1104.5" y="721.4" width="173" height="16.1"/><rect class="cls-17" x="833.5" y="615.5" width="24" height="56"/><rect class="cls-17" x="879.5" y="615.5" width="24" height="56"/><rect class="cls-17" x="927.5" y="615.5" width="24" height="56"/><rect class="cls-17" x="973.5" y="615.5" width="24" height="56"/><rect class="cls-17" x="1019.5" y="615.5" width="24" height="56"/><rect class="cls-17" x="1062.5" y="613.5" width="24" height="56"/><rect class="cls-17" x="833.5" y="703.5" width="24" height="56"/><rect class="cls-17" x="879.5" y="703.5" width="24" height="56"/><rect class="cls-17" x="927.5" y="703.5" width="24" height="56"/><rect class="cls-17" x="973.5" y="703.5" width="24" height="56"/><rect class="cls-17" x="1019.5" y="703.5" width="24" height="56"/><rect class="cls-17" x="1062.5" y="701.5" width="24" height="56"/><rect class="cls-17" x="833.5" y="793.5" width="24" height="56"/><rect class="cls-17" x="879.5" y="793.5" width="24" height="56"/><rect class="cls-17" x="927.5" y="793.5" width="24" height="56"/><rect class="cls-17" x="973.5" y="793.5" width="24" height="56"/><rect class="cls-17" x="1019.5" y="793.5" width="24" height="56"/><rect class="cls-17" x="1062.5" y="791.5" width="24" height="56"/><rect class="cls-17" x="833.5" y="878.5" width="24" height="56"/><rect class="cls-17" x="879.5" y="878.5" width="24" height="56"/><rect class="cls-17" x="927.5" y="878.5" width="24" height="56"/><rect class="cls-17" x="973.5" y="878.5" width="24" height="56"/><rect class="cls-17" x="1019.5" y="878.5" width="24" height="56"/><rect class="cls-17" x="1062.5" y="876.5" width="24" height="56"/><rect class="cls-17" x="834.5" y="955.17" width="24" height="56"/><rect class="cls-17" x="880.3" y="955.17" width="24" height="56"/><rect class="cls-17" x="926.1" y="955.17" width="24" height="56"/><rect class="cls-17" x="971.9" y="955.17" width="24" height="56"/><rect class="cls-17" x="1017.7" y="955.17" width="24" height="56"/><rect class="cls-17" x="1063.5" y="955.17" width="24" height="56"/><rect class="cls-17" x="1124.17" y="754.5" width="24" height="56"/><rect class="cls-17" x="1170.17" y="754.5" width="24" height="56"/><rect class="cls-17" x="1215" y="754.5" width="24" height="56"/><rect class="cls-17" x="1124.17" y="849.5" width="24" height="56"/><rect class="cls-17" x="1170.17" y="849.5" width="24" height="56"/><rect class="cls-17" x="1215" y="849.5" width="24" height="56"/><rect class="cls-17" x="1124.17" y="945.83" width="24" height="56"/><rect class="cls-17" x="1170.17" y="945.83" width="24" height="56"/><rect class="cls-17" x="1215" y="945.83" width="24" height="56"/><line class="cls-8" x1="0.78" y1="915.39" x2="0.5" y2="1079.5"/></g></svg>
