<?xml version="1.0" encoding="UTF-8" standalone="no"?>
<!-- Created with Inkscape (http://www.inkscape.org/) -->

<svg
   xmlns:dc="http://purl.org/dc/elements/1.1/"
   xmlns:cc="http://creativecommons.org/ns#"
   xmlns:rdf="http://www.w3.org/1999/02/22-rdf-syntax-ns#"
   xmlns:svg="http://www.w3.org/2000/svg"
   xmlns="http://www.w3.org/2000/svg"
   xmlns:sodipodi="http://sodipodi.sourceforge.net/DTD/sodipodi-0.dtd"
   xmlns:inkscape="http://www.inkscape.org/namespaces/inkscape"
   width="250mm"
   height="250mm"
   viewBox="0 0 250 250"
   version="1.1"
   id="svg8"
   inkscape:version="0.92.4 5da689c313, 2019-01-14"
   sodipodi:docname="panda.svg">
  <defs
     id="defs2" />
  <sodipodi:namedview
     id="base"
     pagecolor="#ffffff"
     bordercolor="#666666"
     borderopacity="1.0"
     inkscape:pageopacity="0.0"
     inkscape:pageshadow="2"
     inkscape:zoom="0.70000001"
     inkscape:cx="170.41235"
     inkscape:cy="746.54998"
     inkscape:document-units="mm"
     inkscape:current-layer="layer1"
     showgrid="false"
     inkscape:pagecheckerboard="true"
     inkscape:window-width="1918"
     inkscape:window-height="1054"
     inkscape:window-x="0"
     inkscape:window-y="35"
     inkscape:window-maximized="0" />
  <metadata
     id="metadata5">
    <rdf:RDF>
      <cc:Work
         rdf:about="">
        <dc:format>image/svg+xml</dc:format>
        <dc:type
           rdf:resource="http://purl.org/dc/dcmitype/StillImage" />
        <dc:title />
      </cc:Work>
    </rdf:RDF>
  </metadata>
  <g
     inkscape:label="Layer 1"
     inkscape:groupmode="layer"
     id="layer1"
     transform="translate(0,-47)">
    <path
       style="fill:#000000;stroke-width:0.27674398"
       d="M 103.70058,108.04045 A 35.012306,33.94323 0 0 1 68.688271,141.98368 35.012306,33.94323 0 0 1 33.675964,108.04045 35.012306,33.94323 0 0 1 68.688271,74.097221 35.012306,33.94323 0 0 1 103.70058,108.04045 Z"
       id="path9" />
    <ellipse
       style="fill:#000000;stroke-width:0.27674398"
       id="path9-3"
       cx="181.74327"
       cy="110.44585"
       rx="35.012306"
       ry="33.94323" />
    <path
       style="fill:#ffffff;stroke-width:0.32499319"
       d="m 212.212,167.64154 c 0,38.08309 -20.52011,54.84797 -62.2738,63.07561 -29.07534,5.72935 -30.28685,4.6088 -57.034115,-3.89317 -34.233752,-10.88165 -51.744584,-37.4682 -51.744583,-56.50974 3e-6,-38.08309 37.04677,-71.628235 84.724438,-71.628235 47.67767,-2e-6 86.32806,30.872445 86.32806,68.955535 z"
       id="path7"
       inkscape:connector-curvature="0"
       sodipodi:nodetypes="ssssss" />
    <ellipse
       style="fill:#000000;stroke-width:0.26458332"
       id="path31"
       cx="73.499123"
       cy="94.676964"
       rx="0.8018086"
       ry="4.0090427" />
    <path
       style="fill:#000000;stroke-width:0.26458332"
       d="m 113.85682,160.42528 c 0,11.6611 -16.625791,20.57975 -25.925151,20.57975 -9.299359,0 -10.423511,-7.31503 -10.423512,-18.97613 -4e-6,-11.6611 15.022165,-25.92516 24.321533,-25.92516 9.29936,0 12.02713,12.66043 12.02713,24.32154 z"
       id="path39"
       inkscape:connector-curvature="0"
       sodipodi:nodetypes="sssss" />
    <path
       style="fill:#000000;stroke-width:0.26458332"
       d="m 135.58392,160.77083 c 0,11.6611 16.62579,20.57975 25.92515,20.57975 9.29935,0 10.42351,-7.31503 10.42351,-18.97613 0,-11.6611 -15.02217,-25.92516 -24.32153,-25.92516 -9.29936,0 -12.02713,12.66043 -12.02713,24.32154 z"
       id="path39-6"
       inkscape:connector-curvature="0"
       sodipodi:nodetypes="sssss" />
    <path
       style="stroke-width:0.26458332"
       d="m 138.90624,191.07217 c -3.19899,7.53832 -6.32342,8.97694 -13.89063,8.97694 -7.5672,0 -10.49732,-1.64963 -13.51264,-8.97694 -2.3238,-5.6469 6.13443,-9.5439 13.70163,-9.5439 7.56721,0 15.85211,4.47638 13.70164,9.5439 z"
       id="path15"
       inkscape:connector-curvature="0"
       sodipodi:nodetypes="sssss" />
    <path
       id="path20"
       style="fill:none;stroke:#000000;stroke-width:2.00184686;stroke-miterlimit:4;stroke-dasharray:none"
       sodipodi:type="arc"
       sodipodi:cx="-163.67856"
       sodipodi:cy="172.04813"
       sodipodi:rx="9.9810352"
       sodipodi:ry="10.174446"
       sodipodi:start="0.17759618"
       sodipodi:end="4.2452148"
       d="m -153.85451,173.84559 a 9.9810352,10.174446 0 0 1 -9.45157,8.36989 9.9810352,10.174446 0 0 1 -10.03765,-7.62797 9.9810352,10.174446 0 0 1 5.17006,-11.62358"
       transform="matrix(0.31444473,-0.94927578,0.96661367,0.25623818,0,0)"
       sodipodi:open="true" />
    <path
       id="path20-3"
       style="fill:none;stroke:#000000;stroke-width:2.00184686;stroke-miterlimit:4;stroke-dasharray:none"
       sodipodi:type="arc"
       sodipodi:cx="-227.87398"
       sodipodi:cy="-65.713013"
       sodipodi:rx="9.9810352"
       sodipodi:ry="10.174445"
       sodipodi:start="0.17759618"
       sodipodi:end="4.2452148"
       d="m -218.04993,-63.915554 a 9.9810352,10.174445 0 0 1 -9.45157,8.369899 9.9810352,10.174445 0 0 1 -10.03764,-7.627978 9.9810352,10.174445 0 0 1 5.17005,-11.623577"
       transform="matrix(-0.31444472,-0.94927579,-0.96661367,0.25623818,0,0)"
       sodipodi:open="true" />
    <path
       style="fill:#ffffff;stroke:none;stroke-width:1.3271637;stroke-miterlimit:4;stroke-dasharray:none"
       id="path831"
       sodipodi:type="arc"
       sodipodi:cx="99.218758"
       sodipodi:cy="148.45535"
       sodipodi:rx="5.6696424"
       sodipodi:ry="5.8586307"
       sodipodi:start="4.4205231"
       sodipodi:end="4.2452167"
       d="m 97.587376,142.84449 a 5.6696424,5.8586307 0 0 1 6.984554,3.68089 5.6696424,5.8586307 0 0 1 -3.25272,7.37172 5.6696424,5.8586307 0 0 1 -7.269576,-3.03495 5.6696424,5.8586307 0 0 1 2.615724,-7.63765"
       sodipodi:open="true" />
    <path
       style="fill:#ffffff;stroke:none;stroke-width:1.3271637;stroke-miterlimit:4;stroke-dasharray:none"
       id="path831-3"
       sodipodi:type="arc"
       sodipodi:cx="148.92262"
       sodipodi:cy="149.02232"
       sodipodi:rx="5.6696424"
       sodipodi:ry="5.8586307"
       sodipodi:start="4.4205231"
       sodipodi:end="4.2452167"
       d="m 147.29124,143.41146 a 5.6696424,5.8586307 0 0 1 6.98456,3.6809 5.6696424,5.8586307 0 0 1 -3.25272,7.37171 5.6696424,5.8586307 0 0 1 -7.26958,-3.03494 5.6696424,5.8586307 0 0 1 2.61572,-7.63766"
       sodipodi:open="true" />
  </g>
</svg>
