<svg id="Layer_1" data-name="Layer 1" xmlns="http://www.w3.org/2000/svg" viewBox="0 0 1900 1900"><defs><style>.cls-1,.cls-2{fill:#ffffff;}.cls-2,.cls-3,.cls-4{stroke:#ffffff;stroke-linecap:round;stroke-miterlimit:10;}.cls-2,.cls-3{stroke-width:20px;}.cls-3,.cls-4{fill:none;}.cls-4{stroke-width:75px;}</style></defs><polygon class="cls-1" points="869.39 1171.04 812.35 1089.81 926.43 1089.81 869.39 1171.04"/><polygon class="cls-1" points="867.61 944.59 926.43 1067.18 812.35 1067.18 867.61 944.59"/><line class="cls-2" x1="445.21" y1="1138.3" x2="772.52" y2="1138.3"/><line class="cls-2" x1="1318.76" y1="1129.82" x2="1507.79" y2="1129.82"/><polyline class="cls-1" points="961.87 1067.18 838.8 810.17 1301.03 1013.7 1271.83 1067.18"/><polyline class="cls-1" points="961.26 1091.88 1156.85 1091.47 1156.85 1823.98"/><polyline class="cls-1" points="1177.88 1092.76 1287.95 1092.76 1177.88 1155.57"/><polygon class="cls-1" points="838.8 783.39 1688.77 1159.19 1135.28 718.16 838.8 783.39"/><polygon class="cls-1" points="1146.64 712.72 1225.6 774.4 1225.68 751.68 1146.64 712.72"/><polygon class="cls-1" points="1242.1 786.89 1315.48 848.91 1242.1 761.56 1242.1 786.89"/><polyline class="cls-1" points="830.8 761.56 1127.28 696.9 1016.98 536.9 843.13 588.01"/><polyline class="cls-1" points="1034.54 508.07 842.77 565.17 853.48 420.94"/><polygon class="cls-1" points="830.8 419.29 815.27 669.16 714.24 571.33 830.8 419.29"/><polygon class="cls-1" points="709.73 601.83 813.98 703.61 746.05 743.15 709.73 601.83"/><line class="cls-3" x1="450.94" y1="1104.67" x2="450.94" y2="1056.67"/><line class="cls-3" x1="490.42" y1="1104.67" x2="490.42" y2="1000.37"/><line class="cls-3" x1="529.9" y1="1104.67" x2="529.9" y2="1052.52"/><line class="cls-3" x1="569.38" y1="1104.67" x2="569.38" y2="1071.48"/><line class="cls-3" x1="608.86" y1="1104.67" x2="608.86" y2="1036.11"/><line class="cls-3" x1="1318.76" y1="1263.26" x2="1318.76" y2="1166.26"/><line class="cls-3" x1="1355.66" y1="1234.81" x2="1355.66" y2="1166.26"/><line class="cls-3" x1="1392.55" y1="1235.93" x2="1392.55" y2="1167.37"/><line class="cls-3" x1="1429.44" y1="1281.78" x2="1429.44" y2="1166.26"/><line class="cls-3" x1="1466.33" y1="1208.59" x2="1466.33" y2="1166.26"/><line class="cls-3" x1="1503.22" y1="1233.7" x2="1503.22" y2="1165.15"/><line class="cls-3" x1="648.35" y1="1104.67" x2="648.35" y2="1000.37"/><line class="cls-3" x1="687.83" y1="1104.67" x2="687.83" y2="976.67"/><line class="cls-3" x1="727.31" y1="1104.67" x2="727.31" y2="1032.96"/><line class="cls-3" x1="766.79" y1="1104.67" x2="766.79" y2="1000.37"/></svg>