<svg id="Layer_1" data-name="Layer 1" xmlns="http://www.w3.org/2000/svg" viewBox="0 0 396 2700"><defs><style>.cls-1{fill:#646464;}.cls-2{font-size:60px;fill:gray;font-family:SourceSansPro-Regular, Source Sans Pro;}.cls-3,.cls-5,.cls-7,.cls-9{fill:none;}.cls-3,.cls-4{stroke:#283593;}.cls-10,.cls-3,.cls-4,.cls-5,.cls-6,.cls-7,.cls-8,.cls-9{stroke-miterlimit:10;stroke-width:20px;}.cls-4{fill:#283593;}.cls-5{stroke:#ffb300;}.cls-6{fill:#ffa926;stroke:#fbb03b;}.cls-7,.cls-8{stroke:#1de9b6;}.cls-8{fill:#1de9b6;}.cls-10,.cls-9{stroke:#bbdefb;}.cls-10{fill:#bbdefb;}</style></defs><title>timeline</title><ellipse class="cls-1" cx="160" cy="279.53" rx="29" ry="26.53"/><ellipse class="cls-1" cx="160" cy="1433.29" rx="29" ry="26.53"/><ellipse class="cls-1" cx="160" cy="1048.71" rx="29" ry="26.53"/><ellipse class="cls-1" cx="160" cy="1817.88" rx="29" ry="26.53"/><text class="cls-2" transform="translate(0 306.33)">2015</text><text class="cls-2" transform="translate(0 681.33)">2016</text><text class="cls-2" transform="translate(0 1066.33)">2017</text><text class="cls-2" transform="translate(0 1452.33)">2018</text><text class="cls-2" transform="translate(0 1844.33)">2019</text><path class="cls-3" d="M215,525c8,47,29.89,61.14,42.09,74.12,36.47,38.79,70.56,35.42,92.75,83.39A162.53,162.53,0,0,1,362,723.05v778.31c-.73,13.76-3.12,35.65-12.16,56.75-21.06,49.14-57,44.42-93.51,88C243.8,1661.08,226.77,1687,213,1733" transform="translate(-53)"/><circle class="cls-4" cx="309" cy="1095" r="29"/><path class="cls-5" d="M214,1309c19.95,45,41.94,70.71,58,85.72,48,44.85,92.81,41,122,96.44,9.47,18,13.84,35.67,16,46.88v548" transform="translate(-53)"/><circle class="cls-6" cx="357" cy="2092" r="29"/><ellipse class="cls-1" cx="161" cy="664.12" rx="29" ry="26.53"/><text class="cls-2" transform="translate(0 2223.33)">2020</text><path class="cls-7" d="M211,2017c19.95,45,41.94,70.71,58,85.72,48,44.85,92.81,41,122,96.44,9.47,18,13.84,35.67,16,46.88v366" transform="translate(-53)"/><circle class="cls-8" cx="354" cy="2612" r="29"/><path class="cls-9" d="M213,1556c8,47,29.89,61.14,42.09,74.12,36.47,38.79,70.56,35.42,92.75,83.39A162.53,162.53,0,0,1,360,1754.05v190.31c-.73,13.76-3.12,35.65-12.16,56.75-21.06,49.14-57,44.42-93.51,88C241.8,2104.08,224.77,2130,211,2176" transform="translate(-53)"/><circle class="cls-10" cx="307" cy="1844" r="29"/><ellipse class="cls-1" cx="160" cy="2202.47" rx="29" ry="26.53"/><rect class="cls-1" x="149.5" width="17.5" height="2700"/></svg>
