<svg xmlns="http://www.w3.org/2000/svg" viewBox="0 0 1440 320"><path fill="#0099ff" fill-opacity="1" d="M0,256L6.2,234.7C12.3,213,25,171,37,181.3C49.2,192,62,256,74,282.7C86.2,309,98,299,111,256C123.1,213,135,139,148,133.3C160,128,172,192,185,181.3C196.9,171,209,85,222,53.3C233.8,21,246,43,258,58.7C270.8,75,283,85,295,74.7C307.7,64,320,32,332,37.3C344.6,43,357,85,369,133.3C381.5,181,394,235,406,213.3C418.5,192,431,96,443,53.3C455.4,11,468,21,480,64C492.3,107,505,181,517,213.3C529.2,245,542,235,554,202.7C566.2,171,578,117,591,112C603.1,107,615,149,628,170.7C640,192,652,192,665,176C676.9,160,689,128,702,106.7C713.8,85,726,75,738,85.3C750.8,96,763,128,775,165.3C787.7,203,800,245,812,234.7C824.6,224,837,160,849,138.7C861.5,117,874,139,886,138.7C898.5,139,911,117,923,101.3C935.4,85,948,75,960,106.7C972.3,139,985,213,997,245.3C1009.2,277,1022,267,1034,272C1046.2,277,1058,299,1071,298.7C1083.1,299,1095,277,1108,277.3C1120,277,1132,299,1145,298.7C1156.9,299,1169,277,1182,229.3C1193.8,181,1206,107,1218,101.3C1230.8,96,1243,160,1255,181.3C1267.7,203,1280,181,1292,170.7C1304.6,160,1317,160,1329,133.3C1341.5,107,1354,53,1366,80C1378.5,107,1391,213,1403,234.7C1415.4,256,1428,192,1434,160L1440,128L1440,320L1433.8,320C1427.7,320,1415,320,1403,320C1390.8,320,1378,320,1366,320C1353.8,320,1342,320,1329,320C1316.9,320,1305,320,1292,320C1280,320,1268,320,1255,320C1243.1,320,1231,320,1218,320C1206.2,320,1194,320,1182,320C1169.2,320,1157,320,1145,320C1132.3,320,1120,320,1108,320C1095.4,320,1083,320,1071,320C1058.5,320,1046,320,1034,320C1021.5,320,1009,320,997,320C984.6,320,972,320,960,320C947.7,320,935,320,923,320C910.8,320,898,320,886,320C873.8,320,862,320,849,320C836.9,320,825,320,812,320C800,320,788,320,775,320C763.1,320,751,320,738,320C726.2,320,714,320,702,320C689.2,320,677,320,665,320C652.3,320,640,320,628,320C615.4,320,603,320,591,320C578.5,320,566,320,554,320C541.5,320,529,320,517,320C504.6,320,492,320,480,320C467.7,320,455,320,443,320C430.8,320,418,320,406,320C393.8,320,382,320,369,320C356.9,320,345,320,332,320C320,320,308,320,295,320C283.1,320,271,320,258,320C246.2,320,234,320,222,320C209.2,320,197,320,185,320C172.3,320,160,320,148,320C135.4,320,123,320,111,320C98.5,320,86,320,74,320C61.5,320,49,320,37,320C24.6,320,12,320,6,320L0,320Z"></path></svg>